<?xml version="1.0" encoding="UTF-8"?>
<svg xmlns="http://www.w3.org/2000/svg" viewBox="0 0 1335.67 1571.87">
  <defs>
    <style>
      .cls-1, .cls-2, .cls-3, .cls-4 {
        stroke: #231f20;
        stroke-miterlimit: 10;
        stroke-width: 40px;
      }

      .cls-1, .cls-5 {
        fill: #fbb040;
      }

      .cls-2 {
        fill: none;
      }

      .cls-3 {
        fill: #fff;
      }

      .cls-4 {
        fill: #f15a29;
      }
    </style>
  </defs>
  <g id="Layer_1" data-name="Layer 1">
    <path class="cls-1" d="M273.21,1265.26c-87.9,1.3-238.29,26.88-252.17,97.83-7.02,35.87,23.51,69.67,39.13,86.96,109.71,121.44,366.12,139.32,452.17,26.09,3.27-4.3,43.9-59.34,26.09-113.04-33.58-101.25-241.9-98.18-265.22-97.83Z"/>
    <path class="cls-1" d="M1091.69,1249.25c-30.37-1.93-152.85-6.51-222.84,74.72-12.62,14.64-40.21,46.65-34.78,84.56,1.3,9.08,8.03,43.27,73.91,80.66,85.19,48.34,260.72,97.16,356.52,0,8.03-8.14,63.47-66.59,47.83-130.43-16.39-66.86-105.71-118.96-220.64-109.5Z"/>
  </g>
  <g id="Layer_2" data-name="Layer 2">
    <path class="cls-1" d="M229.12,906.48c-29.67-184.43-5.71-336.31-2.85-353.58,31.24-188.45,59.76-378.46,212.48-470.83,68.95-41.7,142.52-59.56,192.43-59.54,58.46,3.37,449.07-72.46,477.62,407.76,3.52,59.18,50.28,292.71-35.54,541.51-22.5,65.24-56.41,116.68-99.24,155.76-142.89,130.38-369.38,139.24-526.91,65.96-37.16-17.29-121.67-57.96-174.51-149.1-21.86-37.7-33.48-75.74-43.49-137.94Z"/>
    <path class="cls-4" d="M1190.6,584.84c31.9,8.35,124.34,32.54,125.07,68.47.69,34.39-82.96,61.41-125.07,75.01-149.16,48.18-363.91,65.06-386.96.05-13.66-38.56,45.45-90.77,60.87-104.39,108.7-96.02,266.57-54.7,326.09-39.13Z"/>
    <path class="cls-2" d="M458.85,902.55c1.69,5.01,16,45.21,56.14,57.57,5.19,1.6,42.88,13.21,66.84-10.22,24.86-24.3,12.3-64.19,10.62-69.26-12.91-38.93-52.15-51.9-56.83-53.36"/>
    <circle class="cls-3" cx="871.77" cy="382.25" r="124.04"/>
    <polygon class="cls-5" points="943.54 398.09 909 405.87 878.77 424.29 871 389.76 852.57 359.53 887.11 351.76 917.34 333.33 925.11 367.87 943.54 398.09"/>
  </g>
</svg>