<?xml version="1.0" encoding="UTF-8"?>
<svg id="Layer_1" data-name="Layer 1" xmlns="http://www.w3.org/2000/svg" xmlns:xlink="http://www.w3.org/1999/xlink" viewBox="0 0 3868.17 553.9">
  <defs>
    <style>
      .cls-1 {
        fill: #fff;
      }

      .cls-2 {
        fill: #231f20;
        font-family: Pleasantly-Plump, 'Pleasantly Plump';
        font-size: 551.97px;
      }
    </style>
  </defs>
  <image width="1337" height="1573" transform="translate(3338.99 189.74) scale(.08)" xlink:href="duckies.png"/>
  <text class="cls-2" transform="translate(0 496.49)"><tspan x="0" y="0">DUCKIES!!!</tspan></text>
  <g>
    <path class="cls-1" d="M1825.48,290.62c1.31-2.14,2.29-4.34,3.09-6.69,1.75-5.16,2.86-10.45,3.42-15.92,2.81-.71,5.54-1.56,8.23-2.58,1.19-.45,2.26-.96,3.36-1.54,1.5-.88,3.28-2.25,3.3-4.16.02-2.14-2.11-3.55-3.81-4.4-3.4-1.58-7.26-2.47-10.9-3.28l-.86-8.67c-.25-2.55-.38-5.02-.88-7.54-.85-4.77-2.41-9.43-5.07-13.5s-6.53-7.39-11.09-9.35c-3.84-1.65-7.8-2.41-11.97-2.62-1.63-.08-3.23-.13-4.88-.02l-1.05.07-3.26.11c-5.38.18-11.1,2.3-15.59,5.21-7.07,4.59-10.66,12.15-12.78,20.06-.7,2.61-1.3,5.16-1.75,7.84l-1.61,9.57c-1.4,8.35-.75,22.91,1.55,31.21,1.43,5.16,4.54,9.55,8.68,12.89,3.83,3.09,9,5.53,13.77,6.78,7.64,1.99,16.03,1.84,23.53-.7,6.72-2.28,12.85-6.59,16.56-12.76ZM1844.22,321.87c1.02-1.45,1.82-2.96,2.27-4.68,1.23-4.64-1.08-8.64-4.92-11.13s-8.62-3.26-13.1-2.91c-4.35-.24-8.81.31-12.76,2.2-2.44,1.17-4.46,2.85-6.09,5-.89,1.17-1.6,2.4-1.97,3.82-.49,1.89-.2,3.77.88,5.39,1.38,2.06,3.52,3.61,5.7,4.78,3.61,1.93,7.48,3.23,11.54,3.86,7.02,1.09,14.17-.23,18.47-6.33ZM1771.42,329.03c4.19-.24,8.35-1.17,11.79-3.69,1.79-1.3,3.14-2.97,4.08-4.97,2.55-5.46,1.05-10.28-4.29-13.05-3.5-1.82-7.93-2.55-11.86-2.83-5.06-.36-10.1,0-15.02,1.23-3.86.96-9.51,3.1-10.09,7.65-.22,1.72.41,3.5,1.37,4.94,2.79,4.16,6.78,6.94,11.45,8.69,3.76,1.41,8.58,2.25,12.57,2.02Z"/>
    <path d="M1825.48,290.62c-3.72,6.17-9.84,10.48-16.56,12.76-7.49,2.54-15.89,2.69-23.53.7-4.76-1.24-9.93-3.68-13.77-6.78-4.15-3.34-7.26-7.73-8.68-12.89-2.29-8.3-2.95-22.86-1.55-31.21l1.61-9.57c.45-2.67,1.05-5.23,1.75-7.84,2.12-7.91,5.71-15.47,12.78-20.06,4.49-2.91,10.21-5.02,15.59-5.21l3.26-.11,1.05-.07c1.64-.11,3.24-.06,4.88.02,4.17.21,8.13.96,11.97,2.62,4.56,1.97,8.37,5.2,11.09,9.35s4.22,8.73,5.07,13.5c.5,2.52.62,4.99.88,7.54l.86,8.67c3.64.81,7.51,1.7,10.9,3.28,1.7.84,3.83,2.26,3.81,4.4-.02,1.91-1.79,3.29-3.3,4.16-1.1.59-2.17,1.09-3.36,1.54-2.69,1.02-5.42,1.87-8.23,2.58-.56,5.47-1.67,10.77-3.42,15.92-.8,2.35-1.78,4.55-3.09,6.69ZM1825.68,283.02c1.59-4.68,2.62-9.41,3.19-14.31-5.12.99-10.23,1.6-15.39,1.24-2.32-.23-4.93-.65-6.78-2.12-1.38-1.09-1.96-2.77-1.57-4.49.56-2.46,2.56-4.59,4.34-6.3,2.11-2.03,4.55-3.56,7.34-4.5,3.97-1.35,8.1-1.47,12.3-.98l-.61-5.96c-.14-1.35-.27-2.6-.36-3.95-1.12-14.19-7.03-25.63-22.21-27.89-2.36-.35-4.67-.51-7.05-.41l-4.54.17c-1.44.06-2.79.08-4.23.36-3.38.65-6.57,1.86-9.57,3.56-4.92,2.79-8.14,6.93-10.4,12.05-.97,2.19-1.72,4.4-2.36,6.72-.7,2.56-1.3,5.06-1.75,7.69l-1.64,9.75c-1.34,7.93-.77,23.98,2,31.6,1.8,4.95,5.53,8.99,9.99,11.71,2.4,1.47,4.94,2.68,7.63,3.56,11.39,3.74,25.41,2.14,34.48-6.12,3.42-3.11,5.69-6.96,7.2-11.38Z"/>
    <path d="M1771.42,329.03c-3.99.23-8.81-.61-12.57-2.02-4.67-1.75-8.67-4.53-11.45-8.69-.96-1.44-1.59-3.22-1.37-4.94.58-4.55,6.23-6.69,10.09-7.65,4.92-1.22,9.96-1.59,15.02-1.23,3.93.28,8.36,1.01,11.86,2.83,5.34,2.77,6.85,7.59,4.29,13.05-.94,2-2.29,3.66-4.08,4.97-3.44,2.51-7.6,3.45-11.79,3.69ZM1779.24,324.18c1.47-.7,2.78-1.58,3.84-2.83,1.2-1.41,2-3.12,2.31-4.93.58-3.34-1.69-5.51-4.49-6.75-1.5-.66-3.02-1.14-4.66-1.46-6.23-1.21-12.64-1.12-18.83.3-2.68.61-9.45,2.62-8.29,6.45.2.67.5,1.29.91,1.87,1.68,2.4,3.86,4.32,6.43,5.74,2.4,1.33,4.94,2.24,7.63,2.8,4.86,1.01,10.6.96,15.14-1.2Z"/>
    <path d="M1844.22,321.87c-4.3,6.1-11.44,7.41-18.47,6.33-4.05-.63-7.93-1.93-11.54-3.86-2.18-1.17-4.32-2.73-5.7-4.78-1.09-1.61-1.37-3.5-.88-5.39.37-1.42,1.08-2.65,1.97-3.82,1.63-2.15,3.65-3.83,6.09-5,3.95-1.89,8.41-2.43,12.76-2.2,4.49-.35,9.3.46,13.1,2.91s6.15,6.48,4.92,11.13c-.45,1.71-1.25,3.23-2.27,4.68ZM1836.01,324.54c2.32-.84,4.24-2.32,5.67-4.32.83-1.16,1.48-2.35,1.87-3.72.92-3.28-.77-5.94-3.4-7.74-3.35-2.25-7.69-2.92-11.68-2.57-3.93-.24-8.17.24-11.7,2.02-1.88.94-3.42,2.26-4.7,3.92s-2.38,3.84-.97,5.83c1.31,1.84,3.47,3.2,5.49,4.19,5.6,2.74,13.38,4.57,19.42,2.38Z"/>
    <path class="cls-1" d="M1825.68,283.02c-1.5,4.42-3.78,8.26-7.2,11.38-9.07,8.26-23.1,9.86-34.48,6.12-2.69-.88-5.23-2.09-7.63-3.56-4.46-2.73-8.19-6.77-9.99-11.71-2.77-7.62-3.34-23.67-2-31.6l1.64-9.75c.44-2.63,1.05-5.13,1.75-7.69.63-2.32,1.39-4.52,2.36-6.72,2.26-5.13,5.48-9.26,10.4-12.05,2.99-1.7,6.19-2.91,9.57-3.56,1.44-.28,2.78-.3,4.23-.36l4.54-.17c2.39-.09,4.69.06,7.05.41,15.18,2.26,21.09,13.7,22.21,27.89.09,1.35.22,2.6.36,3.95l.61,5.96c-4.2-.49-8.32-.37-12.3.98-2.79.94-5.22,2.47-7.34,4.5-1.78,1.71-3.78,3.84-4.34,6.3-.39,1.72.19,3.4,1.57,4.49,1.86,1.47,4.47,1.89,6.78,2.12,5.16.37,10.26-.24,15.39-1.24-.57,4.9-1.6,9.63-3.19,14.31ZM1810.87,228.34c-6.04.53-10.41,5.86-9.89,11.79s5.81,10.43,11.81,9.9,10.37-5.77,9.88-11.74-5.74-10.47-11.8-9.94ZM1779.19,278.97c.67,1.82,1.72,3.25,3.2,4.33,1.72,1.15,3.82,1.62,5.87,1.25s3.72-1.96,4.18-4.05c.51-2.33-.22-5.17-1.94-6.9-1.02-1.04-2.23-1.79-3.63-2.24l-.89,2.88c1.16.43,2.12,1.07,2.82,2.06.64,1.02.9,2.24.7,3.44-.16.99-.89,1.71-1.88,1.86-2.57.38-4.65-1.15-5.55-3.59l-2.87.97Z"/>
    <path class="cls-1" d="M1779.24,324.18c-4.54,2.16-10.29,2.21-15.14,1.2-2.69-.56-5.23-1.47-7.63-2.8-2.57-1.42-4.74-3.34-6.43-5.74-.41-.59-.71-1.2-.91-1.87-1.16-3.83,5.6-5.84,8.29-6.45,6.19-1.42,12.59-1.5,18.83-.3,1.64.32,3.16.79,4.66,1.46,2.8,1.24,5.06,3.41,4.49,6.75-.31,1.81-1.11,3.52-2.31,4.93-1.06,1.24-2.37,2.13-3.84,2.83Z"/>
    <path class="cls-1" d="M1836.01,324.54c-6.04,2.19-13.82.36-19.42-2.38-2.02-.99-4.19-2.36-5.49-4.19-1.41-1.99-.33-4.14.97-5.83s2.81-2.98,4.7-3.92c3.53-1.79,7.77-2.27,11.7-2.02,3.99-.35,8.32.32,11.68,2.57,2.63,1.81,4.32,4.46,3.4,7.74-.38,1.37-1.04,2.56-1.87,3.72-1.43,2-3.35,3.48-5.67,4.32Z"/>
    <path d="M1810.87,228.34c6.06-.53,11.31,3.98,11.8,9.94s-3.93,11.21-9.88,11.74-11.28-3.9-11.81-9.9,3.85-11.26,9.89-11.79ZM1811.02,231.37c-4.36.45-7.45,4.36-7.01,8.61s4.32,7.47,8.62,7.02,7.43-4.28,7.02-8.56-4.25-7.52-8.62-7.07Z"/>
    <path d="M1779.19,278.97l2.87-.97c.91,2.44,2.99,3.97,5.55,3.59,1-.15,1.72-.87,1.88-1.86.2-1.19-.06-2.42-.7-3.44-.7-.99-1.66-1.63-2.82-2.06l.89-2.88c1.4.46,2.61,1.21,3.63,2.24,1.72,1.73,2.45,4.57,1.94,6.9-.46,2.09-2.05,3.66-4.18,4.05s-4.15-.1-5.87-1.25c-1.48-1.08-2.52-2.5-3.2-4.33Z"/>
    <path class="cls-1" d="M1811.02,231.37c4.38-.45,8.21,2.78,8.62,7.07s-2.74,8.12-7.02,8.56-8.18-2.7-8.62-7.02,2.65-8.16,7.01-8.61Z"/>
  </g>
</svg>